<?xml version="1.0" standalone="no"?><!DOCTYPE svg PUBLIC "-//W3C//DTD SVG 1.1//EN" "http://www.w3.org/Graphics/SVG/1.1/DTD/svg11.dtd"><svg t="1695798582648" class="icon" viewBox="0 0 1024 1024" version="1.1" xmlns="http://www.w3.org/2000/svg" p-id="17624" xmlns:xlink="http://www.w3.org/1999/xlink" width="200" height="200"><path d="M341.333333 725.333333c-8.533333 0-25.6 0-34.133333-8.533333s-8.533333-25.6-8.533333-34.133333 0-25.6 8.533333-34.133334l341.333333-341.333333c17.066667-17.066667 42.666667-17.066667 59.733334 0 17.066667 8.533333 17.066667 25.6 17.066666 34.133333s0 25.6-8.533333 34.133334l-341.333333 341.333333c-8.533333 8.533333-25.6 8.533333-34.133334 8.533333z" p-id="17625"></path><path d="M597.333333 810.666667c-8.533333 0-25.6 0-34.133333-8.533334s-8.533333-25.6-8.533333-34.133333 0-25.6 8.533333-34.133333l170.666667-170.666667c17.066667-17.066667 42.666667-17.066667 59.733333 0 17.066667 8.533333 17.066667 25.6 17.066667 34.133333s0 25.6-8.533334 34.133334l-170.666666 170.666666c-8.533333 8.533333-25.6 8.533333-34.133334 8.533334z" p-id="17626"></path></svg>